<?xml version="1.0" encoding="UTF-8" standalone="no"?>
<!DOCTYPE svg PUBLIC "-//W3C//DTD SVG 1.1//EN" "http://www.w3.org/Graphics/SVG/1.1/DTD/svg11.dtd">
<svg version="1.1" xmlns="http://www.w3.org/2000/svg" xmlns:xlink="http://www.w3.org/1999/xlink" preserveAspectRatio="xMidYMid meet" viewBox="0 0 640 640" width="701" height="701"><defs><path d="M330.56 274.44C330.56 341.59 276.79 396.11 210.56 396.11C144.33 396.11 90.56 341.59 90.56 274.44C90.56 207.29 144.33 152.78 210.56 152.78C276.79 152.78 330.56 207.29 330.56 274.44Z" id="b2Cljm5H6"></path><path d="M167.22 196.11C167.22 218.19 149.3 236.11 127.22 236.11C105.15 236.11 87.22 218.19 87.22 196.11C87.22 174.03 105.15 156.11 127.22 156.11C149.3 156.11 167.22 174.03 167.22 196.11Z" id="g4BoaUwMMN"></path><path d="M221.67 216.67C221.67 251.93 192.29 280.56 156.11 280.56C119.93 280.56 90.56 251.93 90.56 216.67C90.56 181.41 119.93 152.78 156.11 152.78C192.29 152.78 221.67 181.41 221.67 216.67Z" id="cZCzpFNzE"></path><path d="M390.56 348.33C390.56 405.36 346.49 451.67 292.22 451.67C237.95 451.67 193.89 405.36 193.89 348.33C193.89 291.3 237.95 245 292.22 245C346.49 245 390.56 291.3 390.56 348.33Z" id="hGzpBV6Hj"></path><path d="M376.11 350.56C376.11 395.94 339.77 432.78 295 432.78C250.23 432.78 213.89 395.94 213.89 350.56C213.89 305.18 250.23 268.33 295 268.33C339.77 268.33 376.11 305.18 376.11 350.56Z" id="d1gG1h4tzZ"></path></defs><g><g><g><use xlink:href="#b2Cljm5H6" opacity="1" fill="#da0c72" fill-opacity="1"></use></g><g></g><g><use xlink:href="#cZCzpFNzE" opacity="1" fill="#ffffff" fill-opacity="1"></use></g><g><use xlink:href="#hGzpBV6Hj" opacity="1" fill="#da0c72" fill-opacity="0"></use><g><use xlink:href="#hGzpBV6Hj" opacity="1" fill-opacity="0" stroke="#ffffff" stroke-width="6" stroke-opacity="1"></use></g></g><g><use xlink:href="#d1gG1h4tzZ" opacity="1" fill="#da0b72" fill-opacity="0"></use><g><use xlink:href="#d1gG1h4tzZ" opacity="1" fill-opacity="0" stroke="#ffffff" stroke-width="6" stroke-opacity="1"></use></g></g></g></g></svg>